<svg xmlns="http://www.w3.org/2000/svg" width="36.75" height="24.5" viewBox="0 0 36.75 24.5">
  <g id="mail" transform="translate(0 -85.333)">
    <g id="Grupo_104" data-name="Grupo 104" transform="translate(0 85.333)">
      <path id="Caminho_55" data-name="Caminho 55" d="M34.866,85.333H1.885A1.89,1.89,0,0,0,0,87.218v20.731a1.89,1.89,0,0,0,1.885,1.885H34.866a1.89,1.89,0,0,0,1.885-1.885V87.218A1.89,1.89,0,0,0,34.866,85.333Zm-.707,1.413-14.7,11.025a1.97,1.97,0,0,1-2.168,0L2.592,86.746ZM26.307,98.5l8.01,9.894c.008.01.018.017.026.026H2.408c.008-.009.018-.017.026-.026l8.01-9.894a.707.707,0,0,0-1.1-.89l-7.931,9.8V87.63L16.443,98.9a3.373,3.373,0,0,0,3.863,0L35.337,87.63v19.777l-7.931-9.8a.707.707,0,0,0-1.1.89Z" transform="translate(0 -85.333)" fill="#fff"/>
    </g>
  </g>
</svg>
