<svg xmlns="http://www.w3.org/2000/svg" width="37.896" height="23.685" viewBox="0 0 37.896 23.685">
  <g id="menu_1_" data-name="menu (1)" transform="translate(0 -96)">
    <g id="Grupo_139" data-name="Grupo 139" transform="translate(0 96)">
      <g id="Grupo_138" data-name="Grupo 138">
        <path id="Caminho_60" data-name="Caminho 60" d="M37.107,96H.79a.79.79,0,1,0,0,1.579H37.107a.79.79,0,1,0,0-1.579Z" transform="translate(0 -96)" fill="#333"/>
      </g>
    </g>
    <g id="Grupo_141" data-name="Grupo 141" transform="translate(0 107.053)">
      <g id="Grupo_140" data-name="Grupo 140">
        <path id="Caminho_61" data-name="Caminho 61" d="M37.107,245.333H.79a.79.79,0,0,0,0,1.579H37.107a.79.79,0,1,0,0-1.579Z" transform="translate(0 -245.333)" fill="#333"/>
      </g>
    </g>
    <g id="Grupo_143" data-name="Grupo 143" transform="translate(0 118.106)">
      <g id="Grupo_142" data-name="Grupo 142" transform="translate(0 0)">
        <path id="Caminho_62" data-name="Caminho 62" d="M37.107,394.667H.79a.789.789,0,1,0,0,1.579H37.107a.789.789,0,1,0,0-1.579Z" transform="translate(0 -394.667)" fill="#333"/>
      </g>
    </g>
  </g>
</svg>
