<svg xmlns="http://www.w3.org/2000/svg" width="33.223" height="33.221" viewBox="0 0 33.223 33.221">
  <g id="call" transform="translate(-1 -1.018)">
    <g id="Grupo_71" data-name="Grupo 71" transform="translate(1 1.018)">
      <g id="Grupo_70" data-name="Grupo 70">
        <path id="Caminho_44" data-name="Caminho 44" d="M33.352,26.647l-6.724-4.484A1.963,1.963,0,0,0,24,22.589L22.04,25.108a.837.837,0,0,1-1.073.226l-.373-.205a22.518,22.518,0,0,1-5.869-4.609,22.609,22.609,0,0,1-4.61-5.869l-.2-.373a.838.838,0,0,1,.221-1.077l2.517-1.958a1.964,1.964,0,0,0,.427-2.628L8.593,1.89A1.952,1.952,0,0,0,5.961,1.3L3.149,2.986A3.966,3.966,0,0,0,1.34,5.334C.328,9.023,1.09,15.391,10.469,24.771c7.461,7.461,13.016,9.467,16.834,9.467a9.808,9.808,0,0,0,2.6-.34,3.963,3.963,0,0,0,2.347-1.809l1.691-2.81A1.953,1.953,0,0,0,33.352,26.647Zm-.362,2.065L31.3,31.524a2.861,2.861,0,0,1-1.689,1.309c-3.406.935-9.356.161-18.361-8.844S1.473,9.033,2.408,5.627a2.866,2.866,0,0,1,1.31-1.691L6.531,2.249a.847.847,0,0,1,1.142.257l2.436,3.657L12.154,9.23a.852.852,0,0,1-.185,1.141L9.451,12.328a1.938,1.938,0,0,0-.513,2.487l.2.363a23.487,23.487,0,0,0,4.8,6.123,23.511,23.511,0,0,0,6.123,4.8l.364.2a1.938,1.938,0,0,0,2.487-.513l1.958-2.517a.853.853,0,0,1,1.141-.185l6.724,4.484A.846.846,0,0,1,32.99,28.712Z" transform="translate(-1 -1.018)" fill="#0a6ba1"/>
        <path id="Caminho_45" data-name="Caminho 45" d="M283.182,70.431a9.422,9.422,0,0,1,9.412,9.412.554.554,0,0,0,1.107,0,10.531,10.531,0,0,0-10.519-10.519.554.554,0,0,0,0,1.107Z" transform="translate(-264.356 -64.892)" fill="#0a6ba1"/>
        <path id="Caminho_46" data-name="Caminho 46" d="M283.182,121.631a6.1,6.1,0,0,1,6.09,6.09.554.554,0,1,0,1.107,0,7.206,7.206,0,0,0-7.2-7.2.554.554,0,0,0,0,1.107Z" transform="translate(-264.356 -112.771)" fill="#0a6ba1"/>
        <path id="Caminho_47" data-name="Caminho 47" d="M283.182,172.831a2.772,2.772,0,0,1,2.768,2.768.554.554,0,0,0,1.107,0,3.88,3.88,0,0,0-3.875-3.875.554.554,0,0,0,0,1.107Z" transform="translate(-264.356 -160.649)" fill="#0a6ba1"/>
      </g>
    </g>
  </g>
</svg>
