<svg id="adobe-photoshop" xmlns="http://www.w3.org/2000/svg" width="49.389" height="49.389" viewBox="0 0 49.389 49.389">
  <path id="Caminho_52" data-name="Caminho 52" d="M270.15,197.65a10.964,10.964,0,0,1-4.8-1.355l-.992,3.991a12.629,12.629,0,0,0,5.8,1.252c5.128,0,7.778-2.457,7.778-5.806-.039-2.637-1.468-4.367-4.881-5.533-2.193-.777-2.884-1.217-2.884-2.058,0-.915.764-1.468,2.119-1.468a8.838,8.838,0,0,1,3.888,1.031l.989-3.853a12.008,12.008,0,0,0-5.067-1.028c-4.438,0-7.3,2.534-7.3,5.87-.039,2.132,1.391,4.152,5.106,5.395,2.081.7,2.633,1.14,2.633,2.055S271.829,197.65,270.15,197.65Z" transform="translate(-237.434 -164.206)" fill="#0a6ba1"/>
  <path id="Caminho_53" data-name="Caminho 53" d="M92.886,134.469a14.2,14.2,0,0,0,1.9.1c3.3,0,6.133-.8,8.028-2.595a7.862,7.862,0,0,0,2.283-5.87,7.178,7.178,0,0,0-2.646-5.722c-1.644-1.329-4.1-1.981-7.553-1.981a46.14,46.14,0,0,0-7.549.514v24.4h5.533v-8.844Zm.01-11.628a9.166,9.166,0,0,1,2.3-.225c2.8,0,4.367,1.352,4.38,3.622,0,2.537-1.846,4.04-4.817,4.04a9.02,9.02,0,0,1-1.859-.138Z" transform="translate(-78.458 -106.343)" fill="#0a6ba1"/>
  <path id="Caminho_54" data-name="Caminho 54" d="M0,0V49.389H49.389V0ZM46.334,46.334H3.055V3.055H46.334Z" fill="#0a6ba1"/>
</svg>
