<svg id="Grupo_106" data-name="Grupo 106" xmlns="http://www.w3.org/2000/svg" width="22.225" height="18.523" viewBox="0 0 22.225 18.523">
  <path id="Caminho_56" data-name="Caminho 56" d="M21.958,42.806a.733.733,0,0,0-.743-.117L2.452,50.262a.371.371,0,1,0,.278.687l17.925-7.233L11.763,54.2a.371.371,0,1,0,.565.479l9.026-10.646-1.206,6.055-1.215,8.12a.371.371,0,0,1-.185.269.35.35,0,0,1-.312.014l-5.052-1.987-2.424-1.015a.37.37,0,0,0-.485.2.356.356,0,0,0-.016.078h-.009l-1.2,4.648L7.519,54.385l9-6.706a.37.37,0,1,0-.442-.593L7.03,53.824.507,51.183a.37.37,0,0,0-.278.687l6.558,2.653,1.749,6.1a.735.735,0,0,0,.708.531h.009a.728.728,0,0,0,.482-.194.327.327,0,0,0,.037-.026l3.581-3.662,4.8,1.9a1.08,1.08,0,0,0,.953-.053,1.108,1.108,0,0,0,.558-.8l1.212-8.1,1.334-6.691A.745.745,0,0,0,21.958,42.806ZM10.284,59.358l.782-3.015,1.225.514.316.125Z" transform="translate(0 -42.636)" fill="#fff"/>
</svg>
