<svg xmlns="http://www.w3.org/2000/svg" width="30.864" height="25.26" viewBox="0 0 30.864 25.26">
  <path id="twitter" d="M11.515,25.261a26.483,26.483,0,0,1-4.09-.325,19.2,19.2,0,0,1-5.6-2.036L0,21.9l1.98-.651c2.164-.712,3.481-1.153,5.11-1.844A6.8,6.8,0,0,1,3.6,15.355l-.461-1.4.378.058a6.868,6.868,0,0,1-.86-1.061,6.511,6.511,0,0,1-1.1-3.871l.087-1.22.731.283A6.831,6.831,0,0,1,1.7,6.29a7.06,7.06,0,0,1,.752-4.753L3.092.368l.851,1.022A15.666,15.666,0,0,0,14.092,7.1a6.07,6.07,0,0,1,.369-3.225,6.038,6.038,0,0,1,2.455-2.815A7.373,7.373,0,0,1,21.195.014a6.835,6.835,0,0,1,4.2,1.733,14.1,14.1,0,0,0,1.538-.513c.337-.127.72-.271,1.2-.436L29.9.19l-1.15,3.284c.076-.006.154-.012.236-.015l1.883-.085L29.752,4.895c-.064.087-.08.112-.1.146-.09.135-.2.3-1.729,2.343a2.877,2.877,0,0,0-.538,1.873,17.72,17.72,0,0,1-.967,7.127A12.612,12.612,0,0,1,23.03,21.4a14.954,14.954,0,0,1-7.088,3.427,21.821,21.821,0,0,1-4.427.434Zm0,0" transform="translate(0 0)" fill="#fff"/>
</svg>
