<svg xmlns="http://www.w3.org/2000/svg" width="49.988" height="47.437" viewBox="0 0 49.988 47.437">
  <g id="wedding-couple" transform="translate(0 -13.061)">
    <g id="Grupo_5" data-name="Grupo 5" transform="translate(33.367 35.257)">
      <g id="Grupo_4" data-name="Grupo 4">
        <path id="Caminho_8" data-name="Caminho 8" d="M342.489,240.4a.733.733,0,0,0-.733.733v.847a.733.733,0,0,0,1.466,0v-.847A.733.733,0,0,0,342.489,240.4Z" transform="translate(-341.756 -240.398)" fill="#fff"/>
      </g>
    </g>
    <g id="Grupo_7" data-name="Grupo 7" transform="translate(39.086 35.257)">
      <g id="Grupo_6" data-name="Grupo 6">
        <path id="Caminho_9" data-name="Caminho 9" d="M401.064,240.4a.733.733,0,0,0-.733.733v.847a.733.733,0,0,0,1.466,0v-.847A.733.733,0,0,0,401.064,240.4Z" transform="translate(-400.331 -240.398)" fill="#fff"/>
      </g>
    </g>
    <g id="Grupo_9" data-name="Grupo 9" transform="translate(34.65 39.34)">
      <g id="Grupo_8" data-name="Grupo 8">
        <path id="Caminho_10" data-name="Caminho 10" d="M359.213,282.359a.733.733,0,0,0-1.023.167,1.4,1.4,0,0,1-1.962,0,.733.733,0,0,0-1.19.857,2.835,2.835,0,0,0,4.342,0A.733.733,0,0,0,359.213,282.359Z" transform="translate(-354.899 -282.221)" fill="#fff"/>
      </g>
    </g>
    <g id="Grupo_11" data-name="Grupo 11" transform="translate(9.908 36.367)">
      <g id="Grupo_10" data-name="Grupo 10">
        <path id="Caminho_11" data-name="Caminho 11" d="M102.213,251.769a.733.733,0,0,0-.733.733v.82a.733.733,0,0,0,1.466,0v-.82A.733.733,0,0,0,102.213,251.769Z" transform="translate(-101.48 -251.769)" fill="#fff"/>
      </g>
    </g>
    <g id="Grupo_13" data-name="Grupo 13" transform="translate(11.151 40.32)">
      <g id="Grupo_12" data-name="Grupo 12">
        <path id="Caminho_12" data-name="Caminho 12" d="M118.419,292.4a.733.733,0,0,0-1.023.167,1.331,1.331,0,0,1-1.861,0,.733.733,0,1,0-1.19.857,2.768,2.768,0,0,0,4.242,0A.733.733,0,0,0,118.419,292.4Z" transform="translate(-114.206 -292.263)" fill="#fff"/>
      </g>
    </g>
    <g id="Grupo_15" data-name="Grupo 15" transform="translate(28.115 51.266)">
      <g id="Grupo_14" data-name="Grupo 14">
        <path id="Caminho_13" data-name="Caminho 13" d="M288.7,404.379a.733.733,0,0,0-.733.733v1.43a.733.733,0,0,0,1.466,0v-1.43A.733.733,0,0,0,288.7,404.379Z" transform="translate(-287.966 -404.379)" fill="#fff"/>
      </g>
    </g>
    <g id="Grupo_17" data-name="Grupo 17" transform="translate(17.009 13.061)">
      <g id="Grupo_16" data-name="Grupo 16" transform="translate(0 0)">
        <path id="Caminho_14" data-name="Caminho 14" d="M185.389,13.061a4.755,4.755,0,0,0-3.194,1.22,4.788,4.788,0,0,0-7.982,3.567c0,2.324,1.356,4.559,3.92,6.464a18.185,18.185,0,0,0,3.794,2.149.734.734,0,0,0,.534,0,18.187,18.187,0,0,0,3.794-2.149c2.565-1.9,3.92-4.14,3.92-6.464A4.793,4.793,0,0,0,185.389,13.061Zm-3.195,11.92c-1.258-.557-6.515-3.126-6.515-7.133a3.321,3.321,0,0,1,5.938-2.044.733.733,0,0,0,1.155,0,3.321,3.321,0,0,1,5.938,2.044C188.71,21.856,183.452,24.425,182.194,24.981Z" transform="translate(-174.213 -13.061)" fill="#fff"/>
      </g>
    </g>
    <g id="Grupo_19" data-name="Grupo 19" transform="translate(0 24.302)">
      <g id="Grupo_18" data-name="Grupo 18" transform="translate(0 0)">
        <path id="Caminho_15" data-name="Caminho 15" d="M45.734,149.491,41.1,148.127c-.022-.007-.044-.012-.067-.017l-.727-.146a.373.373,0,0,1-.3-.364v-.35a7.4,7.4,0,0,0,4-4.546h.561a1.8,1.8,0,0,0,1.794-1.793v-1.175a1.8,1.8,0,0,0-.625-1.359v-1.293a7.653,7.653,0,0,0-7.644-7.644H35.831a7.653,7.653,0,0,0-7.644,7.644v1.293a1.8,1.8,0,0,0-.625,1.359v1.175a1.8,1.8,0,0,0,1.794,1.793h.561a7.4,7.4,0,0,0,3.866,4.486v.436a.373.373,0,0,1-.3.365l-.584.117h0l-.01,0c-.023,0-.045.01-.067.017l-4.635,1.365a5.953,5.953,0,0,0-3.635,3.066A5.564,5.564,0,0,0,23.4,151.24l1.787-.566a2.345,2.345,0,0,0,1.633-2.373,31.648,31.648,0,0,0-2.445-10.219c-2.325-5.524-5.657-7.64-8.135-8.432a3.477,3.477,0,0,0-5.65,0c-2.478.792-5.81,2.908-8.135,8.432A31.645,31.645,0,0,0,0,148.3a2.344,2.344,0,0,0,1.633,2.373l1.786.566a5.518,5.518,0,0,0-2,4.232v8.192a.733.733,0,0,0,.733.733l47.1,0a.733.733,0,0,0,.733-.733V155.18A5.963,5.963,0,0,0,45.734,149.491Zm-22.715-10.84a30.142,30.142,0,0,1,2.333,9.734.879.879,0,0,1-.611.89l-3.107.984q-.087-.029-.174-.054l-4.247-1.251c-.021-.006-.041-.011-.063-.016l-.666-.134a.279.279,0,0,1-.223-.273V148.2l.083-.039c.077-.035.153-.07.228-.107l.111-.057c.076-.039.151-.079.225-.121l.1-.055q.121-.071.239-.146l.069-.044q.138-.09.271-.186l.026-.019a7.183,7.183,0,0,0,2.64-3.676h.541a1.762,1.762,0,0,0,1.76-1.76V140.85c0-.054,0-.107-.008-.16,0-.013,0-.025,0-.038-.006-.052-.013-.1-.024-.154l0-.01c-.01-.048-.023-.095-.036-.141l-.011-.035c-.016-.048-.033-.1-.052-.142l-.007-.015c-.018-.042-.038-.084-.06-.124L22.327,140c-.024-.044-.05-.086-.078-.128l-.012-.017q-.038-.055-.08-.107l-.021-.026c-.032-.038-.065-.075-.1-.11l-.018-.017q-.047-.046-.1-.088l-.024-.021q-.058-.047-.119-.089l-.023-.015-.057-.037c0-.122,0-.243-.01-.364,0-.044,0-.087-.007-.131q-.007-.113-.017-.225c-.005-.058-.01-.115-.016-.173,0-.02-.005-.04-.008-.059a8.277,8.277,0,0,0-2.779-5.272h0q-.211-.185-.434-.355l-.021-.017c-.046-.035-.092-.068-.139-.1s-.109-.079-.165-.117l-.114-.077q-.123-.082-.249-.16l-.044-.028q-.159-.1-.323-.186l-.051-.027q-.141-.076-.285-.146l-.067-.033-.081-.04q0-.075,0-.15c0-.065,0-.129-.006-.192,0,0,0-.006,0-.009C18.886,132.43,21.246,134.441,23.018,138.652Zm-6.84,3.9a.733.733,0,0,0,.733-.733V141a.729.729,0,0,0-.149-.441H19.1v1.076q0,.152-.008.3c0,.007,0,.013,0,.02-.006.1-.013.192-.024.288v.007q-.016.149-.041.3l0,.015q-.023.14-.054.28c-.009.041-.018.081-.028.121q-.021.086-.044.172c-.011.039-.022.078-.033.117s-.023.078-.036.117-.028.084-.043.126q-.033.093-.068.185l-.03.076q-.094.233-.209.456l-.006.012a5.758,5.758,0,0,1-1.581,1.9l-.021.016-.122.091-.069.049q-.081.057-.163.111l-.114.073-.089.054q-.078.046-.157.091l-.065.035q-.091.049-.184.094l-.066.032c-.071.034-.142.066-.215.1l-.025.01c-.066.028-.133.054-.2.079l-.075.027-.135.046-.123.04-.127.036q-.107.03-.216.056c-.048.012-.1.023-.145.034l-.118.023-.143.026-.116.017-.153.019-.109.011-.174.013-.091.006c-.089,0-.178.007-.268.007s-.184,0-.276-.007l-.084-.006c-.064,0-.128-.008-.192-.015l-.093-.01c-.061-.007-.121-.014-.181-.023l-.091-.014q-.092-.015-.183-.033l-.083-.017c-.064-.014-.128-.029-.192-.044l-.07-.017c-.072-.019-.143-.039-.213-.061l-.043-.013a5.655,5.655,0,0,1-1-.421l-.03-.016q-.106-.058-.209-.12l-.051-.032c-.047-.029-.093-.059-.139-.089l-.107-.072-.038-.027a5.774,5.774,0,0,1-2.023-2.567l-.008-.02q-.054-.138-.1-.28c-.005-.016-.011-.032-.016-.048-.013-.041-.025-.082-.038-.124s-.022-.075-.032-.113-.028-.1-.04-.155-.022-.091-.032-.137q-.03-.137-.053-.274l0-.02q-.024-.146-.04-.292s0-.008,0-.012c-.01-.095-.018-.189-.023-.284,0-.008,0-.016,0-.024q-.008-.152-.008-.3v-1.179l.02-.009q.04-.017.079-.037l.031-.016c.035-.019.069-.038.1-.06h0c.033-.021.064-.044.094-.068l.027-.022q.034-.028.066-.058l.025-.024a1.372,1.372,0,0,0,.155-.182l.02-.029q.025-.037.048-.076l.018-.031c.02-.036.038-.072.055-.11a.731.731,0,0,0,.038-.107l.541-2.029a.261.261,0,0,1,.421-.132c2.624,2.216,4.721,2.914,6.157,3.062a.73.73,0,0,0-.174.474v.82A.733.733,0,0,0,16.178,142.552Zm4.358-.271c0-.044.006-.089.009-.133s.009-.115.012-.173c.006-.114.009-.228.009-.342v-1.076h.221a.294.294,0,0,1,.293.293v1.138a.294.294,0,0,1-.293.293Zm-9.1-10.987c.01-.052.022-.1.036-.153,0-.01.006-.02.009-.03.012-.042.026-.083.041-.124l.016-.042q.023-.059.05-.116l.014-.03a2.015,2.015,0,0,1,3.622,0l.015.031c.018.038.034.076.05.115l.016.042c.015.041.029.082.041.124,0,.01.007.02.009.03q.021.075.036.153l0,.013c-.094-.023-.189-.044-.284-.064l-.074-.015c-.113-.023-.227-.043-.341-.061l-.027,0c-.122-.019-.244-.034-.367-.047l-.072-.008q-.182-.018-.364-.028l-.066,0c-.128-.006-.256-.01-.385-.01s-.257,0-.385.01l-.066,0q-.183.01-.364.028l-.072.008c-.123.013-.245.028-.367.047l-.027,0c-.114.018-.227.038-.34.061l-.074.015c-.095.02-.19.041-.284.064C11.431,131.3,11.431,131.3,11.432,131.294ZM10.2,133.339l.043-.023q.27-.142.553-.26l.065-.026q.1-.04.2-.077l.135-.048.162-.054.144-.044.162-.045.146-.037.169-.038.142-.029c.059-.011.119-.021.179-.031l.136-.022c.064-.009.129-.017.193-.024l.127-.014c.072-.007.145-.012.218-.016l.107-.007c.109-.005.218-.008.328-.008s.219,0,.328.008l.107.007c.073,0,.145.009.217.016l.128.015c.064.007.129.015.193.024l.137.022.179.031.143.03.168.038.146.037.161.045.145.044.161.053.136.048c.067.025.134.05.2.077l.064.026q.283.118.553.26l.042.023q.11.059.218.122l.066.039q.1.057.19.118l.071.046c.068.045.135.092.2.139s.105.077.157.116l.086.066q.082.065.162.132l.034.029a6.878,6.878,0,0,1,2.382,4.45c0,.034.008.067.011.1s.008.1.012.144.009.122.012.183c0,.023,0,.045,0,.068H16.236c-2.24,0-4.613-1.722-5.828-2.748-.035-.03-.072-.058-.109-.085l-.032-.022q-.045-.031-.091-.058l-.027-.016q-.058-.033-.119-.062L10,136.087q-.049-.022-.1-.041l-.036-.013c-.04-.014-.08-.027-.12-.038l-.008,0c-.043-.011-.086-.021-.13-.029l-.038-.006q-.051-.008-.1-.014l-.033,0q-.066-.005-.132-.006H9.268l-.085,0-.044,0-.079.009-.044.007-.083.016-.038.008c-.04.01-.08.02-.12.033a1.719,1.719,0,0,0-1.151,1.2l-.5,1.874H6.594q0-.034,0-.068c0-.061.007-.122.012-.183s.007-.1.012-.143.008-.068.012-.1a6.878,6.878,0,0,1,2.382-4.449l.034-.028q.08-.067.163-.132l.085-.065c.053-.04.105-.08.159-.118s.132-.093.2-.138l.072-.046c.062-.04.125-.079.189-.118l.067-.04C10.054,133.418,10.127,133.378,10.2,133.339ZM2.08,149.276a.879.879,0,0,1-.611-.89A30.145,30.145,0,0,1,3.8,138.652c1.772-4.211,4.132-6.221,6.132-7.17,0,0,0,.006,0,.009,0,.064-.006.128-.006.192s0,.1,0,.15l-.081.039-.068.033q-.144.07-.284.146l-.052.028q-.163.089-.322.186l-.046.029q-.125.077-.248.159l-.115.078q-.083.057-.163.116c-.047.034-.094.068-.14.1l-.015.012a8.288,8.288,0,0,0-3.218,5.632c0,.02-.005.039-.008.059-.006.057-.011.115-.016.173q-.01.112-.017.225c0,.044-.005.087-.007.131-.006.121-.009.242-.01.364l-.057.037-.023.015c-.041.028-.081.058-.119.089l-.024.02q-.05.042-.1.088l-.018.017c-.035.035-.068.072-.1.11l-.021.026c-.028.035-.055.07-.08.107l-.012.017c-.028.041-.053.084-.078.128l-.017.031c-.021.041-.042.082-.06.124l-.007.015c-.02.046-.037.094-.052.142l-.011.035c-.014.046-.026.093-.036.141l0,.01c-.01.051-.018.1-.024.154,0,.013,0,.025,0,.038,0,.053-.008.106-.008.16v1.138a1.762,1.762,0,0,0,1.76,1.76h.54l0,0c.014.046.031.091.046.136a7.109,7.109,0,0,0,3.675,4.186l.028.014c.039.019.078.039.117.057v.413a.279.279,0,0,1-.224.273l-.545.11-.062.015-4.247,1.25h0q-.085.025-.17.053Zm4.182-7.3c0,.057.008.113.012.169s.005.091.009.137H6.032a.294.294,0,0,1-.293-.293V140.85a.294.294,0,0,1,.293-.293h.221v1.076C6.253,141.747,6.256,141.861,6.262,141.975Zm17.669,20.956h-2.02v-6.916a1.731,1.731,0,0,0-.337-1.024,4.951,4.951,0,0,0-7.788-.219.486.486,0,0,1-.754,0,4.951,4.951,0,0,0-7.788.219,1.731,1.731,0,0,0-.337,1.025v1.314a.733.733,0,1,0,1.466,0v-1.314a.255.255,0,0,1,.048-.151,3.485,3.485,0,0,1,5.482-.155,1.953,1.953,0,0,0,3.009,0,3.485,3.485,0,0,1,5.482.155.255.255,0,0,1,.048.151v6.916H6.375v-2.19a.733.733,0,0,0-1.466,0v2.19H2.889v-7.459a4.047,4.047,0,0,1,2.7-3.8l.034-.012.061-.019.1-.03h0l4.216-1.241.514-.1q.075-.015.147-.036l.048-.016c.031-.01.063-.02.093-.032l.056-.024c.027-.012.054-.023.08-.036l.057-.031c.024-.013.049-.026.072-.04l.056-.037c.022-.015.045-.029.066-.044l.054-.042c.02-.016.041-.032.061-.048s.034-.031.051-.047.037-.034.055-.053.032-.034.047-.051.034-.037.05-.056.029-.037.043-.055.031-.039.045-.06.026-.039.039-.059.027-.042.04-.063.023-.041.034-.062.024-.044.034-.066.02-.043.029-.065.02-.046.029-.069.016-.045.024-.067.016-.048.023-.072.012-.046.018-.069.012-.049.017-.074.008-.047.012-.071.007-.051.01-.077,0-.048.006-.073,0-.028,0-.042l.038.007c.053.011.107.02.16.03s.126.024.19.034.126.017.189.026.11.015.165.021c.071.008.144.013.216.018.048,0,.1.008.144.011.075,0,.151.006.227.008l.138,0h.039c.065,0,.129,0,.194,0l.131,0c.081,0,.161-.01.241-.016l.122-.009c.082-.008.164-.018.245-.029l.115-.015c.086-.013.171-.028.256-.044l.083-.014c0,.006,0,.012,0,.017,0,.022,0,.044.007.065s.006.055.011.082.008.043.013.065.011.053.018.079.012.043.018.064.015.051.024.076.015.042.023.062.019.049.03.073.018.04.028.06.023.047.036.069l.033.058q.02.034.041.066l.037.055.047.062.041.051c.017.02.034.039.052.058l.045.048c.018.019.038.036.057.054l.049.044c.02.017.041.033.062.05l.052.039c.022.016.045.03.067.045l.054.035c.024.014.048.027.073.04l.055.03c.026.013.053.024.08.035l.055.024c.03.012.062.022.093.032l.048.016c.048.014.1.026.146.036l.634.128,4.216,1.241q.079.023.157.05l.018.006a4.047,4.047,0,0,1,2.712,3.8v7.459ZM41.09,150.677l1,1.766-2.9,4.5ZM37.364,152.9h-.809l-.286-.5.691-.631.691.631Zm.187,4.372-.324,1.065-.268.881-.592-1.945.4-2.906h.375ZM35,150.1a7.688,7.688,0,0,0,1.361.228l-1.521,1.389a.727.727,0,0,0-.121.147l-.607-2Zm-.025-1.523a1.832,1.832,0,0,0,.268-.872q.105.025.211.047l.064.012q.134.027.269.048l.066.011c.1.015.194.026.292.037l.1.01q.142.014.284.022l.1.005q.145.006.29.007h.094c.1,0,.2,0,.3-.008l.071,0q.145-.008.289-.022l.046,0c.109-.011.217-.025.325-.041l.05-.007c.108-.017.216-.036.324-.058l.041-.008.082-.017a1.833,1.833,0,0,0,.3.868l-.3.079a6.24,6.24,0,0,1-3.166,0Zm2.575,1.751a7.68,7.68,0,0,0,1.361-.228l.887-.233-.607,2a.726.726,0,0,0-.121-.147Zm6.749-9.22c.005-.07.012-.141.015-.212q.009-.179.009-.358v-1.135h.24a.316.316,0,0,1,.063.007h0a.348.348,0,0,1,.04.013l.024.008h0a.328.328,0,0,1,.193.3v1.175a.327.327,0,0,1-.327.327h-.27C44.3,141.2,44.3,141.154,44.3,141.113Zm-14.948.124h0a.327.327,0,0,1-.327-.327v-1.175a.328.328,0,0,1,.194-.3.335.335,0,0,1,.058-.019l.01,0a.316.316,0,0,1,.063-.007h.239v1.135q0,.179.009.358c0,.071.01.141.015.211,0,.042,0,.083.009.125Zm1.18-5.563a.725.725,0,0,0-.082.029l-.034.016-.043.021c-.014.008-.026.017-.039.025l-.032.02c-.014.01-.026.021-.039.031l-.026.022c-.013.012-.024.024-.036.037l-.023.024c-.011.013-.022.027-.032.041l-.02.026c-.01.014-.019.03-.027.045s-.011.018-.016.028-.015.032-.022.048-.008.017-.012.025l0,.01v0l0,.006h0v0c-.038.1-.073.207-.106.312l0,.007v0a7.31,7.31,0,0,0-.281,1.269v-.644a6.185,6.185,0,0,1,6.178-6.178h2.258a6.185,6.185,0,0,1,6.178,6.178v.646c-.005-.039-.011-.078-.017-.118v-.01l-.01-.067v0q-.024-.151-.054-.3v0l-.016-.078v0q-.029-.138-.063-.274l0-.007-.007-.028,0-.009h0l0-.01c0-.016-.011-.03-.017-.045s-.015-.045-.024-.066-.017-.03-.025-.045-.021-.041-.034-.06-.022-.027-.032-.041-.027-.036-.042-.052-.027-.025-.041-.037-.03-.029-.047-.042-.034-.022-.051-.033-.031-.022-.048-.031-.04-.018-.061-.027-.031-.015-.048-.02-.045-.012-.068-.017-.032-.009-.049-.012-.045,0-.068-.006-.034,0-.052,0h-.026a.733.733,0,0,0-.366.1,6.053,6.053,0,0,1-3.1.7,13.247,13.247,0,0,1-3.858-.8,10.637,10.637,0,0,0-4.923-.734l-.05.008-.017,0C30.875,135.587,30.705,135.625,30.535,135.674Zm.659,6.125q-.031-.142-.055-.286l0-.019q-.025-.152-.041-.3v-.011c-.011-.1-.019-.2-.024-.3,0-.008,0-.015,0-.022q-.009-.158-.009-.316v-1.857s0-.008,0-.011h0c0-.058,0-.116,0-.174,0-.027,0-.055,0-.083s0-.04,0-.06v-.015l0-.049c0-.062.008-.124.014-.186h0c0-.028.006-.055.009-.082l0-.032c.006-.055.013-.11.021-.165s.012-.08.019-.12.018-.1.028-.155.016-.081.025-.121.023-.1.035-.15l0-.012c.009-.036.017-.072.027-.109s.028-.1.042-.149l0-.012.093-.014c.053-.008.107-.018.16-.024s.135-.013.2-.018l.052,0a9.182,9.182,0,0,1,3.143.54c.213.065.426.132.642.2a20.573,20.573,0,0,0,2.9.756,8.815,8.815,0,0,0,1.392.116c.233,0,.459-.009.68-.023.162-.01.323-.023.479-.041l.035,0c.08-.009.157-.021.235-.033.046-.007.094-.012.139-.019s.092-.017.139-.026c.074-.013.15-.026.223-.041.047-.01.093-.022.139-.033.07-.016.141-.031.209-.049s.132-.038.2-.057c.046-.013.093-.025.138-.04s.107-.037.161-.055.109-.036.162-.056v.011c.009.087.015.174.02.261h0l0,.063a.012.012,0,0,0,0,0c0,.088.007.176.007.264h0s0,.007,0,.011v1.857q0,.158-.009.316c0,.008,0,.015,0,.022-.006.1-.014.2-.024.3v.011q-.017.152-.041.3l0,.02q-.024.143-.055.286a5.922,5.922,0,0,1-4,4.376l-.052.016q-.106.032-.214.061l-.077.019q-.1.024-.194.045l-.09.018q-.093.018-.187.033l-.1.015c-.062.009-.124.017-.187.024l-.1.011c-.066.006-.132.011-.2.015l-.087.006c-.095,0-.19.007-.286.007s-.2,0-.292-.007l-.1-.007c-.063,0-.126-.008-.189-.014l-.123-.014c-.054-.006-.108-.013-.161-.021l-.137-.023-.142-.025-.149-.032-.124-.029-.16-.043-.11-.031-.166-.053-.1-.035-.161-.06A5.922,5.922,0,0,1,31.194,141.8Zm1.635,8.879,1.905,6.265-2.9-4.5ZM45.7,162.926V155.9a.733.733,0,1,0-1.466,0v7.028H29.582V160.74a.733.733,0,1,0-1.466,0v2.186H25.4v-7.746a4.488,4.488,0,0,1,3.2-4.281l2.9-.855-1.091,1.927a.991.991,0,0,0,.053,1.062l5.88,9.107,0,0,.012.017.009.013.029.038.011.012.028.031h0l.018.017.016.015c.014.013.029.025.045.037l.01.008.008.006.006,0c.02.014.041.027.063.039l.014.008.013.006.021.011.024.01.034.014.017.007h0l.031.009.03.008.038.008.024,0,.022,0a.729.729,0,0,0,.085.005h0a.728.728,0,0,0,.085-.005l.022,0,.023,0,.038-.008.03-.008.032-.009h0l.017-.007.034-.014.024-.01.021-.011.012-.006.014-.008a.723.723,0,0,0,.063-.039l.006,0,.009-.007.009-.007c.016-.012.031-.024.046-.037l.016-.015q.025-.023.047-.049l.011-.012c.01-.012.02-.025.029-.038l.008-.011.012-.018,0,0,5.88-9.107a.99.99,0,0,0,.053-1.061l-1.091-1.927,2.9.855a4.488,4.488,0,0,1,3.2,4.281v7.746Z" transform="translate(0 -128.201)" fill="#fff"/>
      </g>
    </g>
  </g>
</svg>
