<svg id="calendar" xmlns="http://www.w3.org/2000/svg" width="50.586" height="50.586" viewBox="0 0 50.586 50.586">
  <g id="Grupo_32" data-name="Grupo 32">
    <g id="Grupo_31" data-name="Grupo 31">
      <path id="Caminho_30" data-name="Caminho 30" d="M45.166,5.42h-5.42V1.807a1.807,1.807,0,1,0-3.613,0V5.42H14.453V1.807a1.807,1.807,0,1,0-3.613,0V5.42H5.42A5.42,5.42,0,0,0,0,10.84V45.166a5.42,5.42,0,0,0,5.42,5.42H45.166a5.42,5.42,0,0,0,5.42-5.42V10.84A5.42,5.42,0,0,0,45.166,5.42Zm1.807,39.746a1.807,1.807,0,0,1-1.807,1.807H5.42a1.807,1.807,0,0,1-1.807-1.807V21.68h43.36Zm0-27.1H3.613V10.84A1.807,1.807,0,0,1,5.42,9.033h5.42v3.613a1.807,1.807,0,1,0,3.613,0V9.033h21.68v3.613a1.807,1.807,0,1,0,3.613,0V9.033h5.42a1.807,1.807,0,0,1,1.807,1.807v7.227Z" fill="#0a6ba1"/>
    </g>
  </g>
  <g id="Grupo_34" data-name="Grupo 34" transform="translate(9.033 25.293)">
    <g id="Grupo_33" data-name="Grupo 33">
      <path id="Caminho_31" data-name="Caminho 31" d="M90.753,238.933H87.14a1.807,1.807,0,1,0,0,3.613h3.613a1.807,1.807,0,0,0,0-3.613Z" transform="translate(-85.333 -238.933)" fill="#0a6ba1"/>
    </g>
  </g>
  <g id="Grupo_36" data-name="Grupo 36" transform="translate(21.68 25.293)">
    <g id="Grupo_35" data-name="Grupo 35">
      <path id="Caminho_32" data-name="Caminho 32" d="M210.22,238.933h-3.613a1.807,1.807,0,0,0,0,3.613h3.613a1.807,1.807,0,0,0,0-3.613Z" transform="translate(-204.8 -238.933)" fill="#0a6ba1"/>
    </g>
  </g>
  <g id="Grupo_38" data-name="Grupo 38" transform="translate(34.326 25.293)">
    <g id="Grupo_37" data-name="Grupo 37">
      <path id="Caminho_33" data-name="Caminho 33" d="M329.687,238.933h-3.613a1.807,1.807,0,1,0,0,3.613h3.613a1.807,1.807,0,0,0,0-3.613Z" transform="translate(-324.267 -238.933)" fill="#0a6ba1"/>
    </g>
  </g>
  <g id="Grupo_40" data-name="Grupo 40" transform="translate(9.033 32.52)">
    <g id="Grupo_39" data-name="Grupo 39">
      <path id="Caminho_34" data-name="Caminho 34" d="M90.753,307.2H87.14a1.807,1.807,0,1,0,0,3.613h3.613a1.807,1.807,0,1,0,0-3.613Z" transform="translate(-85.333 -307.2)" fill="#0a6ba1"/>
    </g>
  </g>
  <g id="Grupo_42" data-name="Grupo 42" transform="translate(21.68 32.52)">
    <g id="Grupo_41" data-name="Grupo 41">
      <path id="Caminho_35" data-name="Caminho 35" d="M210.22,307.2h-3.613a1.807,1.807,0,0,0,0,3.613h3.613a1.807,1.807,0,0,0,0-3.613Z" transform="translate(-204.8 -307.2)" fill="#0a6ba1"/>
    </g>
  </g>
  <g id="Grupo_44" data-name="Grupo 44" transform="translate(34.326 32.52)">
    <g id="Grupo_43" data-name="Grupo 43">
      <path id="Caminho_36" data-name="Caminho 36" d="M329.687,307.2h-3.613a1.807,1.807,0,1,0,0,3.613h3.613a1.807,1.807,0,0,0,0-3.613Z" transform="translate(-324.267 -307.2)" fill="#0a6ba1"/>
    </g>
  </g>
  <g id="Grupo_46" data-name="Grupo 46" transform="translate(9.033 39.746)">
    <g id="Grupo_45" data-name="Grupo 45">
      <path id="Caminho_37" data-name="Caminho 37" d="M90.753,375.467H87.14a1.807,1.807,0,1,0,0,3.613h3.613a1.807,1.807,0,1,0,0-3.613Z" transform="translate(-85.333 -375.467)" fill="#0a6ba1"/>
    </g>
  </g>
  <g id="Grupo_48" data-name="Grupo 48" transform="translate(21.68 39.746)">
    <g id="Grupo_47" data-name="Grupo 47">
      <path id="Caminho_38" data-name="Caminho 38" d="M210.22,375.467h-3.613a1.807,1.807,0,0,0,0,3.613h3.613a1.807,1.807,0,0,0,0-3.613Z" transform="translate(-204.8 -375.467)" fill="#0a6ba1"/>
    </g>
  </g>
  <g id="Grupo_50" data-name="Grupo 50" transform="translate(34.326 39.746)">
    <g id="Grupo_49" data-name="Grupo 49">
      <path id="Caminho_39" data-name="Caminho 39" d="M329.687,375.467h-3.613a1.807,1.807,0,1,0,0,3.613h3.613a1.807,1.807,0,0,0,0-3.613Z" transform="translate(-324.267 -375.467)" fill="#0a6ba1"/>
    </g>
  </g>
</svg>
