<svg xmlns="http://www.w3.org/2000/svg" width="32.815" height="46.871" viewBox="0 0 32.815 46.871">
  <g id="camera-lens" transform="translate(-76.77)">
    <g id="Grupo_24" data-name="Grupo 24" transform="translate(76.77)">
      <path id="Caminho_18" data-name="Caminho 18" d="M169,197.6v-2.959a.687.687,0,0,0-.687-.687H150.191a.687.687,0,0,0-.687.687V197.6a.687.687,0,0,0,.687.687h18.125A.687.687,0,0,0,169,197.6Zm-1.373-.687H150.877v-1.586h16.752Z" transform="translate(-142.846 -176.196)" fill="#fff"/>
      <path id="Caminho_19" data-name="Caminho 19" d="M109.4.222A.687.687,0,0,0,108.9,0H103.72a.687.687,0,0,0-.655.482l-.774,2.478h-1.765L99.751.482A.686.686,0,0,0,99.1,0H87.259A.687.687,0,0,0,86.6.482L85.83,2.96H84.065L83.291.482A.686.686,0,0,0,82.635,0H77.457a.687.687,0,0,0-.684.744l.925,11.1a.687.687,0,0,0,.684.63H79.7l.774,3.1v8.2a2.54,2.54,0,0,0-1.849,2.44v4.624a2.54,2.54,0,0,0,1.849,2.441V41.56a.687.687,0,0,0,.687.687h1.163v3.937a.687.687,0,0,0,.687.687H103.35a.687.687,0,0,0,.687-.687V42.247H105.2a.687.687,0,0,0,.687-.687V33.275a2.541,2.541,0,0,0,1.849-2.441V26.209a2.54,2.54,0,0,0-1.849-2.44v-8.2l.774-3.1h1.314a.687.687,0,0,0,.684-.63l.265-3.178a.687.687,0,1,0-1.369-.114l-.212,2.548H79.013L78.2,1.373h3.928L82.9,3.851a.687.687,0,0,0,.655.482h2.775a.687.687,0,0,0,.655-.482l.774-2.478H98.591l.774,2.478a.687.687,0,0,0,.655.482H102.8a.687.687,0,0,0,.655-.482l.774-2.478h3.928l-.331,3.974a.687.687,0,0,0,1.368.114l.393-4.717A.687.687,0,0,0,109.4.222Zm-4.891,40.652h-4.162a.687.687,0,1,0,0,1.373h2.312V45.5H83.692V42.247H97.138a.687.687,0,0,0,0-1.373h-15.3v-7.5h22.67Zm1.849-14.665v4.624A1.164,1.164,0,0,1,105.2,32H81.156a1.164,1.164,0,0,1-1.163-1.164V26.209a1.164,1.164,0,0,1,1.161-1.163h3.184a.687.687,0,0,0,0-1.373h-2.5v-7.5h22.67v7.5H87.552a.687.687,0,0,0,0,1.373H105.2A1.164,1.164,0,0,1,106.362,26.209Zm-1.7-11.413H81.692l-.581-2.326h24.134Z" transform="translate(-76.77)" fill="#fff"/>
      <path id="Caminho_20" data-name="Caminho 20" d="M136.049,290.927a.687.687,0,0,0-.687.687v2.4a.687.687,0,0,0,1.373,0v-2.4A.687.687,0,0,0,136.049,290.927Z" transform="translate(-129.998 -264.294)" fill="#fff"/>
      <path id="Caminho_21" data-name="Caminho 21" d="M168.374,290.927a.687.687,0,0,0-.687.687v2.4a.687.687,0,1,0,1.373,0v-2.4A.687.687,0,0,0,168.374,290.927Z" transform="translate(-159.364 -264.294)" fill="#fff"/>
      <path id="Caminho_22" data-name="Caminho 22" d="M200.7,290.927a.687.687,0,0,0-.687.687v2.4a.687.687,0,0,0,1.373,0v-2.4A.687.687,0,0,0,200.7,290.927Z" transform="translate(-188.73 -264.294)" fill="#fff"/>
      <path id="Caminho_23" data-name="Caminho 23" d="M233.024,290.927a.687.687,0,0,0-.687.687v2.4a.687.687,0,0,0,1.373,0v-2.4A.687.687,0,0,0,233.024,290.927Z" transform="translate(-218.096 -264.294)" fill="#fff"/>
      <path id="Caminho_24" data-name="Caminho 24" d="M265.35,290.927a.687.687,0,0,0-.687.687v2.4a.687.687,0,0,0,1.373,0v-2.4A.687.687,0,0,0,265.35,290.927Z" transform="translate(-247.462 -264.294)" fill="#fff"/>
      <path id="Caminho_25" data-name="Caminho 25" d="M297.675,290.927a.687.687,0,0,0-.687.687v2.4a.687.687,0,1,0,1.373,0v-2.4A.687.687,0,0,0,297.675,290.927Z" transform="translate(-276.828 -264.294)" fill="#fff"/>
      <path id="Caminho_26" data-name="Caminho 26" d="M330,290.927a.687.687,0,0,0-.687.687v2.4a.687.687,0,0,0,1.373,0v-2.4A.687.687,0,0,0,330,290.927Z" transform="translate(-306.194 -264.294)" fill="#fff"/>
      <path id="Caminho_27" data-name="Caminho 27" d="M362.325,290.927a.687.687,0,0,0-.687.687v2.4a.687.687,0,0,0,1.373,0v-2.4A.687.687,0,0,0,362.325,290.927Z" transform="translate(-335.56 -264.294)" fill="#fff"/>
      <path id="Caminho_28" data-name="Caminho 28" d="M200.157,386.173h6.288a2.166,2.166,0,1,0,0-4.332h-6.288a2.166,2.166,0,0,0,0,4.332Zm7.081-2.166a.793.793,0,1,1-.793-.793A.794.794,0,0,1,207.239,384.007Zm-7.081-.793h4.273a2.157,2.157,0,0,0,0,1.586h-4.273a.793.793,0,0,1,0-1.586Z" transform="translate(-186.894 -346.885)" fill="#fff"/>
    </g>
  </g>
</svg>
