<svg xmlns="http://www.w3.org/2000/svg" width="24.975" height="24.975" viewBox="0 0 24.975 24.975">
  <path id="Caminho_29" data-name="Caminho 29" d="M24.034.943A3.083,3.083,0,0,0,21.774,0H3.2A3.083,3.083,0,0,0,.944.943,3.082,3.082,0,0,0,0,3.2V21.772a3.083,3.083,0,0,0,.943,2.26,3.084,3.084,0,0,0,2.26.943H21.773a3.22,3.22,0,0,0,3.2-3.2V3.2A3.083,3.083,0,0,0,24.034.943ZM8.969,9a4.907,4.907,0,0,1,3.537-1.423A4.927,4.927,0,0,1,16.058,9a4.608,4.608,0,0,1,1.471,3.439,4.607,4.607,0,0,1-1.471,3.439A4.925,4.925,0,0,1,12.505,17.3a4.907,4.907,0,0,1-3.537-1.423A4.607,4.607,0,0,1,7.5,12.439,4.608,4.608,0,0,1,8.969,9ZM22.148,21.106a.947.947,0,0,1-.293.707.969.969,0,0,1-.7.285H3.774a.972.972,0,0,1-.992-.992V10.569H5.074a7,7,0,0,0-.325,2.13,7.14,7.14,0,0,0,2.276,5.326,7.6,7.6,0,0,0,5.48,2.2,7.816,7.816,0,0,0,3.9-1.008,7.592,7.592,0,0,0,2.829-2.74,7.2,7.2,0,0,0,1.041-3.78,7,7,0,0,0-.325-2.13h2.2V21.106h0Zm0-14.521a1.111,1.111,0,0,1-1.122,1.122H18.2a1.11,1.11,0,0,1-1.122-1.122V3.9a1.092,1.092,0,0,1,.325-.789,1.071,1.071,0,0,1,.8-.333h2.829a1.07,1.07,0,0,1,.8.333,1.091,1.091,0,0,1,.326.789Z" transform="translate(-0.001)" fill="#fff"/>
</svg>
