<svg xmlns="http://www.w3.org/2000/svg" width="24.017" height="34.158" viewBox="0 0 24.017 34.158">
  <g id="placeholder" transform="translate(-76)">
    <g id="Grupo_66" data-name="Grupo 66" transform="translate(76)">
      <g id="Grupo_65" data-name="Grupo 65" transform="translate(0)">
        <path id="Caminho_42" data-name="Caminho 42" d="M88.009,0A12.011,12.011,0,0,0,77.793,18.323l9.533,15.362a1,1,0,0,0,.85.473h.008a1,1,0,0,0,.851-.486l9.29-15.51A12.011,12.011,0,0,0,88.009,0Zm8.6,17.134-8.446,14.1L79.494,17.269a10.014,10.014,0,1,1,17.112-.135Z" transform="translate(-76)" fill="#0a6ba1"/>
      </g>
    </g>
    <g id="Grupo_68" data-name="Grupo 68" transform="translate(82.004 6.004)">
      <g id="Grupo_67" data-name="Grupo 67">
        <path id="Caminho_43" data-name="Caminho 43" d="M172,90a6,6,0,1,0,6,6A6.011,6.011,0,0,0,172,90Zm0,10.021A4.016,4.016,0,1,1,176.014,96,4.019,4.019,0,0,1,172,100.021Z" transform="translate(-166 -90)" fill="#0a6ba1"/>
      </g>
    </g>
  </g>
</svg>
