<svg xmlns="http://www.w3.org/2000/svg" width="51.853" height="41.817" viewBox="0 0 51.853 41.817">
  <g id="picture" transform="translate(0 -48)">
    <g id="Grupo_21" data-name="Grupo 21" transform="translate(0 48)">
      <g id="Grupo_20" data-name="Grupo 20">
        <path id="Caminho_16" data-name="Caminho 16" d="M49.344,48H7.527a2.509,2.509,0,0,0-2.509,2.509v.836a2.509,2.509,0,0,0-2.509,2.509v.836A2.509,2.509,0,0,0,0,57.2V87.308a2.509,2.509,0,0,0,2.509,2.509H44.326a2.509,2.509,0,0,0,2.509-2.509v-.836a2.509,2.509,0,0,0,2.509-2.509v-.836a2.509,2.509,0,0,0,2.509-2.509V50.509A2.509,2.509,0,0,0,49.344,48ZM45.163,87.308a.836.836,0,0,1-.836.836H2.509a.836.836,0,0,1-.836-.836V65.731L15.2,85.275a.836.836,0,0,0,1.375,0L30.945,64.524,45.163,85.061Zm0-5.185L31.631,62.578a.868.868,0,0,0-1.375,0L15.891,83.33,1.673,62.792V57.2a.836.836,0,0,1,.836-.836H44.326a.836.836,0,0,1,.836.836Zm2.509,1.84a.836.836,0,0,1-.836.836V57.2a2.509,2.509,0,0,0-2.509-2.509H4.182v-.836a.836.836,0,0,1,.836-.836H46.835a.836.836,0,0,1,.836.836Zm2.509-3.345a.836.836,0,0,1-.836.836v-27.6a2.509,2.509,0,0,0-2.509-2.509H6.691v-.836a.836.836,0,0,1,.836-.836H49.344a.836.836,0,0,1,.836.836Z" transform="translate(0 -48)" fill="#fff"/>
      </g>
    </g>
    <g id="Grupo_23" data-name="Grupo 23" transform="translate(3.345 58.036)">
      <g id="Grupo_22" data-name="Grupo 22">
        <path id="Caminho_17" data-name="Caminho 17" d="M35.345,144a3.345,3.345,0,1,0,3.345,3.345A3.345,3.345,0,0,0,35.345,144Zm0,5.018a1.673,1.673,0,1,1,1.673-1.673A1.673,1.673,0,0,1,35.345,149.018Z" transform="translate(-32 -144)" fill="#fff"/>
      </g>
    </g>
  </g>
</svg>
