<svg id="whatsapp" xmlns="http://www.w3.org/2000/svg" width="45" height="45" viewBox="0 0 45 45">
  <path id="Caminho_48" data-name="Caminho 48" d="M0,45,3.87,33.391a22.11,22.11,0,1,1,8.73,8.294Z" fill="#10957c"/>
  <path id="Caminho_49" data-name="Caminho 49" d="M39.685,31.713c-1.021-1.93-4.786-4.136-4.786-4.136-.852-.486-1.88-.54-2.366.326A19.5,19.5,0,0,1,31,29.58a2.86,2.86,0,0,1-4.067-.4l-3.089-3.089L20.754,23a2.86,2.86,0,0,1-.4-4.067A19.5,19.5,0,0,1,22.029,17.4c.866-.486.812-1.514.326-2.366,0,0-2.207-3.765-4.136-4.786a2.115,2.115,0,0,0-2.485.374L14.37,11.984c-4.327,4.327-2.2,9.212,2.131,13.539l3.955,3.955,3.955,3.955c4.327,4.327,9.212,6.458,13.539,2.131L39.312,34.2A2.117,2.117,0,0,0,39.685,31.713Z" transform="translate(-2.69 -2.241)" fill="#fff"/>
</svg>
